<svg width="134" height="36" viewBox="0 0 134 36" fill="none" xmlns="http://www.w3.org/2000/svg">
<path d="M39.0935 11.7591H42.3521V24.7591H39.0935V11.7591ZM43.6515 19.8691C43.6515 16.6491 45.6818 14.7191 48.7273 14.7191C51.7727 14.7191 53.8031 16.6491 53.8031 19.8691C53.8031 23.0891 51.8438 25.0391 48.7273 25.0391C45.6108 25.0391 43.6515 23.1591 43.6515 19.8691ZM50.5749 19.8691C50.5749 18.0991 49.8744 17.0591 48.7577 17.0591C47.6411 17.0591 46.9508 18.0591 46.9508 19.8691C46.9508 21.6791 47.6411 22.6691 48.7577 22.6691C49.8744 22.6691 50.5952 21.6791 50.5952 19.8791L50.5749 19.8691ZM55.1024 25.4291H58.2494C58.3927 25.7628 58.6429 26.0413 58.9618 26.2218C59.2808 26.4024 59.6509 26.4752 60.0158 26.4291C61.2644 26.4291 61.9141 25.7691 61.9141 24.7891V22.9891H61.9243C61.6554 23.5496 61.2205 24.0167 60.6769 24.3291C60.1333 24.6415 59.5065 24.7844 58.8788 24.7391C56.4932 24.7391 54.9096 22.9491 54.9096 19.8691C54.9096 16.7891 56.4221 14.8691 58.9702 14.8691C59.6139 14.8352 60.2525 14.9987 60.7979 15.3372C61.3433 15.6757 61.7687 16.1725 62.0156 16.7591H61.9243V14.9491H65.1524V24.6891C65.1524 27.0391 63.0409 28.5091 59.9346 28.5091C57.1124 28.4991 55.3055 27.2291 55.1227 25.4391L55.1024 25.4291ZM61.9243 19.8691C61.9243 18.2991 61.1934 17.3091 60.0361 17.3091C58.8788 17.3091 58.1682 18.3091 58.1682 19.8691C58.1682 21.4291 58.8687 22.3491 60.0361 22.3491C61.2035 22.3491 61.9243 21.4991 61.9243 19.8691ZM66.4417 19.8691C66.4417 16.6491 68.472 14.7191 71.5174 14.7191C74.5629 14.7191 76.5932 16.6491 76.5932 19.8691C76.5932 23.0891 74.6238 25.0391 71.5174 25.0391C68.4111 25.0391 66.462 23.1591 66.462 19.8691H66.4417ZM73.365 19.8691C73.365 18.0991 72.6544 17.0591 71.5479 17.0591C70.4414 17.0591 69.7409 18.0591 69.7409 19.8691C69.7409 21.6791 70.4312 22.6691 71.5479 22.6691C72.6646 22.6691 73.3853 21.6791 73.3853 19.8791L73.365 19.8691ZM77.9129 12.5791C77.8987 12.2521 77.9842 11.9284 78.1583 11.6497C78.3324 11.3709 78.5872 11.1499 78.8899 11.015C79.1926 10.88 79.5293 10.8374 79.8568 10.8926C80.1843 10.9477 80.4875 11.0981 80.7275 11.3244C80.9675 11.5508 81.1333 11.8426 81.2035 12.1625C81.2737 12.4824 81.2451 12.8157 81.1215 13.1194C80.9978 13.4232 80.7848 13.6836 80.5097 13.8671C80.2346 14.0506 79.91 14.1488 79.5777 14.1491C79.3655 14.1544 79.1541 14.1181 78.9562 14.0424C78.7582 13.9666 78.5774 13.8528 78.4244 13.7077C78.2715 13.5626 78.1492 13.389 78.065 13.1969C77.9806 13.0049 77.9358 12.7983 77.9332 12.5891L77.9129 12.5791ZM77.9129 14.9391H81.2121V24.7991H77.9637L77.9129 14.9391ZM93.0793 19.8691C93.0793 23.0791 91.6175 24.9391 89.1303 24.9391C88.4936 24.9778 87.8602 24.823 87.3155 24.4958C86.7709 24.1685 86.3414 23.6845 86.0849 23.1091H86.024V27.9691H82.7653V14.9691H86.0037V16.7291H86.0646C86.3123 16.1424 86.7376 15.6451 87.2825 15.3051C87.8276 14.9651 88.4657 14.7989 89.11 14.8291C91.6682 14.8091 93.1402 16.6591 93.1402 19.8791L93.0793 19.8691ZM89.7597 19.8691C89.7597 18.3091 89.0187 17.2991 87.8715 17.2991C86.7244 17.2991 86.0037 18.2991 85.9935 19.8691C85.9834 21.4391 86.7244 22.4291 87.8715 22.4291C89.0187 22.4291 89.8206 21.4991 89.8206 19.8791L89.7597 19.8691ZM98.6423 14.7091C101.373 14.7091 103.068 15.9791 103.089 18.0191H100.114C100.114 17.3091 99.5153 16.8691 98.622 16.8691C97.7287 16.8691 97.3023 17.2091 97.3023 17.7191C97.3023 18.2291 97.6779 18.3891 98.4291 18.5391L100.52 18.9591C102.551 19.3791 103.363 20.1791 103.363 21.6691C103.363 23.6691 101.485 25.0291 98.6931 25.0291C95.9014 25.0291 94.0843 23.7091 93.9523 21.6991H97.1094C97.2008 22.4291 97.7896 22.8591 98.7438 22.8591C99.698 22.8591 100.145 22.5591 100.145 22.0291C100.145 21.4991 99.8402 21.4091 99.0585 21.2491L97.1703 20.8591C95.2111 20.4491 94.1858 19.4391 94.1858 17.9291C94.2467 15.9691 95.9521 14.7191 98.7032 14.7191L98.6423 14.7091ZM114.276 24.7891H111.118V22.9391H111.058C110.881 23.5562 110.496 24.0955 109.966 24.4681C109.436 24.8408 108.794 25.0245 108.144 24.9891C107.654 25.0048 107.164 24.9182 106.711 24.7348C106.257 24.5515 105.847 24.2756 105.509 23.9253C105.17 23.5749 104.911 23.158 104.747 22.702C104.584 22.246 104.52 21.761 104.561 21.2791V14.9491H107.819V20.5891C107.819 21.7491 108.438 22.3791 109.454 22.3791C109.692 22.3773 109.927 22.3252 110.143 22.2264C110.359 22.1275 110.551 21.9841 110.705 21.8059C110.861 21.6277 110.975 21.4188 111.041 21.1934C111.106 20.9679 111.123 20.7312 111.088 20.4991V14.9491H114.337L114.276 24.7891ZM115.849 14.9391H119.016V16.8391H119.087C119.262 16.2304 119.638 15.6961 120.153 15.3197C120.67 14.9434 121.298 14.7462 121.94 14.7591C122.585 14.7039 123.227 14.8875 123.741 15.274C124.256 15.6605 124.605 16.2222 124.722 16.8491H124.864C125.067 16.2188 125.475 15.6722 126.026 15.2943C126.576 14.9163 127.239 14.7282 127.909 14.7591C128.355 14.7424 128.799 14.8186 129.213 14.9827C129.627 15.1467 130 15.395 130.31 15.7113C130.62 16.0275 130.857 16.4046 131.008 16.8178C131.161 17.231 131.222 17.671 131.188 18.1091V24.7991H127.909V18.9291C127.909 17.9291 127.432 17.3691 126.508 17.3691C126.303 17.3658 126.1 17.4062 125.912 17.4874C125.725 17.5687 125.558 17.689 125.422 17.84C125.286 17.9911 125.184 18.1692 125.125 18.3624C125.066 18.5556 125.049 18.7591 125.077 18.9591V24.7991H121.97V18.8991C121.97 17.8991 121.473 17.3691 120.58 17.3691C120.373 17.3675 120.168 17.4095 119.979 17.4923C119.789 17.5752 119.62 17.6969 119.482 17.8494C119.345 18.0019 119.243 18.1816 119.182 18.3764C119.12 18.5713 119.102 18.7768 119.128 18.9791V24.7991H115.869L115.849 14.9391Z" fill="#222222"/>
<path d="M32.6472 12.6109C32.6473 10.6206 32.0372 8.67671 30.8967 7.03377C29.7563 5.39083 28.1387 4.12548 26.2559 3.40348C24.3731 2.68147 22.3127 2.53647 20.3449 2.98746C18.3769 3.43845 16.5932 4.46441 15.2272 5.93095H2.55811V32.2709H29.3073V19.9609C30.3572 19.0359 31.1973 17.9032 31.7728 16.6367C32.3483 15.3702 32.6463 13.9985 32.6472 12.6109ZM27.5004 12.6109C27.5024 13.5646 27.2171 14.4975 26.6807 15.2915C26.1442 16.0854 25.3808 16.7048 24.4869 17.0711C23.5929 17.4375 22.6089 17.5344 21.659 17.3495C20.7092 17.1647 19.8364 16.7064 19.151 16.0327C18.4657 15.359 17.9987 14.5002 17.8091 13.5649C17.6195 12.6297 17.7158 11.66 18.0858 10.7787C18.4559 9.89741 19.083 9.14404 19.8878 8.61397C20.6928 8.0839 21.6392 7.80096 22.6073 7.80095C23.9033 7.80095 25.1463 8.3074 26.0636 9.20916C26.981 10.1109 27.4977 11.3343 27.5004 12.6109ZM24.1605 27.2009H7.70492V11.0009H12.7198C12.6229 11.5324 12.5719 12.071 12.5675 12.6109C12.5702 15.2331 13.6288 17.7471 15.5111 19.6013C17.3933 21.4554 19.9454 22.4983 22.6073 22.5009C23.1278 22.4982 23.6471 22.4547 24.1605 22.3709V27.2009Z" fill="#222222"/>
</svg>
