<svg width="153" height="38" viewBox="0 0 153 38" fill="none" xmlns="http://www.w3.org/2000/svg">
<g clip-path="url(#clip0_111_928)">
<path d="M44.554 26.6876H55.504V23.351H48.4458V10.7832H44.554V26.6876Z" fill="#222222"/>
<path d="M61.9915 24.4622C60.4304 24.4622 59.6168 23.0831 59.6168 21.0144C59.6168 18.9457 60.4304 17.5444 61.9915 17.5444C63.5527 17.5444 64.3882 18.9457 64.3882 21.0144C64.3882 23.0831 63.5527 24.4622 61.9915 24.4622ZM62.0135 27.0425C65.6415 27.0425 68.0162 24.44 68.0162 21.0144C68.0162 17.5889 65.6415 14.9863 62.0135 14.9863C58.4074 14.9863 55.9888 17.5889 55.9888 21.0144C55.9888 24.44 58.4074 27.0425 62.0135 27.0425Z" fill="#222222"/>
<path d="M74.296 30.6246C75.9671 30.6246 77.4403 30.2464 78.4298 29.3566C79.3313 28.5336 79.9249 27.288 79.9249 25.5752V15.2985H76.4948V16.5219H76.4508C75.7912 15.5654 74.7797 14.9648 73.2846 14.9648C70.4921 14.9648 68.5571 17.3227 68.5571 20.6593C68.5571 24.1516 70.9099 26.0646 73.4385 26.0646C74.8017 26.0646 75.6593 25.5085 76.3189 24.7522H76.4069V25.8866C76.4069 27.2657 75.7692 28.0665 74.252 28.0665C73.0647 28.0665 72.471 27.5549 72.2731 26.9543H68.799C69.1508 29.3344 71.1957 30.6246 74.296 30.6246ZM74.274 23.373C72.9327 23.373 72.0532 22.2608 72.0532 20.5481C72.0532 18.813 72.9327 17.7008 74.274 17.7008C75.7692 17.7008 76.5608 18.991 76.5608 20.5258C76.5608 22.1274 75.8352 23.373 74.274 23.373Z" fill="#222222"/>
<path d="M86.9778 24.4622C85.4167 24.4622 84.6031 23.0831 84.6031 21.0144C84.6031 18.9457 85.4167 17.5444 86.9778 17.5444C88.539 17.5444 89.3745 18.9457 89.3745 21.0144C89.3745 23.0831 88.539 24.4622 86.9778 24.4622ZM86.9998 27.0425C90.6278 27.0425 93.0028 24.44 93.0028 21.0144C93.0028 17.5889 90.6278 14.9863 86.9998 14.9863C83.3938 14.9863 80.9751 17.5889 80.9751 21.0144C80.9751 24.44 83.3938 27.0425 86.9998 27.0425Z" fill="#222222"/>
<path d="M94.0493 26.6876H97.6334V15.2987H94.0493V26.6876ZM94.0493 13.7194H97.6334V10.7832H94.0493V13.7194Z" fill="#222222"/>
<path d="M99.188 30.4466H102.772V25.5085H102.816C103.52 26.4649 104.553 27.0433 106.004 27.0433C108.951 27.0433 110.908 24.6854 110.908 20.9929C110.908 17.5674 109.083 14.9648 106.092 14.9648C104.553 14.9648 103.454 15.6544 102.684 16.6776H102.618V15.2985H99.188V30.4466ZM105.081 24.2406C103.542 24.2406 102.662 22.9726 102.662 21.1264C102.662 19.2802 103.454 17.8788 105.015 17.8788C106.554 17.8788 107.28 19.1689 107.28 21.1264C107.28 23.0616 106.444 24.2406 105.081 24.2406Z" fill="#222222"/>
<path d="M116.744 27.0433C119.69 27.0433 121.867 25.7531 121.867 23.2618C121.867 20.3479 119.536 19.8363 117.557 19.5026C116.128 19.2357 114.853 19.1245 114.853 18.3237C114.853 17.6119 115.534 17.2782 116.414 17.2782C117.403 17.2782 118.085 17.5896 118.217 18.6128H121.515C121.339 16.3662 119.624 14.9648 116.436 14.9648C113.775 14.9648 111.576 16.2105 111.576 18.6128C111.576 21.2821 113.665 21.816 115.622 22.1496C117.117 22.4166 118.481 22.5278 118.481 23.551C118.481 24.285 117.799 24.6854 116.722 24.6854C115.534 24.6854 114.787 24.1293 114.655 22.9949H111.269C111.378 25.5085 113.445 27.0433 116.744 27.0433Z" fill="#222222"/>
<path d="M126.734 27.0214C128.296 27.0214 129.285 26.3985 130.099 25.2863H130.165V26.6877H133.595V15.2988H130.011V21.6606C130.011 23.0175 129.263 23.9517 128.032 23.9517C126.888 23.9517 126.339 23.2621 126.339 22.0165V15.2988H122.777V22.7728C122.777 25.3086 124.14 27.0214 126.734 27.0214Z" fill="#222222"/>
<path d="M135.154 26.6874H138.738V20.3034C138.738 18.9465 139.398 17.99 140.519 17.99C141.597 17.99 142.102 18.7018 142.102 19.9252V26.6874H145.686V20.3034C145.686 18.9465 146.324 17.99 147.467 17.99C148.545 17.99 149.05 18.7018 149.05 19.9252V26.6874H152.635V19.2802C152.635 16.7221 151.359 14.9648 148.809 14.9648C147.357 14.9648 146.148 15.5877 145.269 16.9668H145.225C144.653 15.7434 143.531 14.9648 142.058 14.9648C140.431 14.9648 139.354 15.7434 138.65 16.9223H138.584V15.2985H135.154V26.6874Z" fill="#222222"/>
<path fill-rule="evenodd" clip-rule="evenodd" d="M7.92875 3.60609C6.61803 4.53325 5.43278 5.62946 4.40388 6.86346C8.60845 6.46857 13.9502 7.11338 20.1519 10.2504C26.7745 13.6001 32.1074 13.7134 35.8188 12.9891C35.482 11.9577 35.058 10.9663 34.5558 10.0239C30.3073 10.4772 24.8607 9.87721 18.5131 6.66658C14.4823 4.62774 10.9292 3.78788 7.92875 3.60609ZM32.074 6.45033C28.7189 2.65807 23.8432 0.271484 18.4163 0.271484C16.8227 0.271484 15.2764 0.47734 13.8022 0.864173C15.7988 1.41527 17.9197 2.22152 20.1519 3.35066C24.7993 5.70134 28.8115 6.45821 32.074 6.45033ZM36.6122 16.6097C32.1285 17.5054 25.937 17.3214 18.5131 13.5663C11.5726 10.0556 6.0485 10.0998 2.32288 10.9374C2.13057 10.9806 1.9428 11.026 1.75955 11.0733C1.27178 12.1465 0.882419 13.275 0.60305 14.4469C0.901431 14.3662 1.20976 14.2896 1.52788 14.218C6.04771 13.2019 12.4339 13.2461 20.1519 17.15C27.0925 20.6607 32.6166 20.6165 36.3423 19.7789C36.4699 19.7503 36.5957 19.7206 36.7193 19.69C36.7329 19.3978 36.7397 19.1037 36.7397 18.808C36.7397 18.0643 36.6964 17.3307 36.6122 16.6097ZM36.1211 23.6019C31.6809 24.3872 25.6696 24.0858 18.5131 20.466C11.5726 16.9553 6.0485 16.9995 2.32288 17.8371C1.4959 18.0229 0.751961 18.2494 0.0957019 18.4884C0.0939127 18.5947 0.0930176 18.7013 0.0930176 18.808C0.0930176 29.0455 8.29665 37.3446 18.4163 37.3446C26.8974 37.3446 34.0327 31.5157 36.1211 23.6019Z" fill="#222222"/>
</g>
<defs>
<clipPath id="clip0_111_928">
<rect width="153" height="38" fill="white"/>
</clipPath>
</defs>
</svg>
