<svg width="171" height="32" viewBox="0 0 171 32" fill="none" xmlns="http://www.w3.org/2000/svg">
<g clip-path="url(#clip0_111_973)">
<path d="M67.5821 6.2832H64V22.4465H73.9164V19.2794H67.5821V6.2832Z" fill="#222222"/>
<path d="M74.2585 16.9656C74.2585 20.4167 76.5738 22.7101 80.0685 22.7101C83.5414 22.7101 85.8567 20.4167 85.8567 16.9656C85.8567 13.5145 83.5414 11.1992 80.0685 11.1992C76.5738 11.1992 74.2585 13.5145 74.2585 16.9656ZM77.644 16.9437C77.644 15.3056 78.6051 14.2135 80.0685 14.2135C81.5101 14.2135 82.4712 15.3056 82.4712 16.9437C82.4712 18.6038 81.5101 19.6959 80.0685 19.6959C78.6051 19.6959 77.644 18.6038 77.644 16.9437Z" fill="#222222"/>
<path d="M86.3977 16.7896C86.3977 20.0877 88.5383 22.3156 91.5743 22.3156C93.0378 22.3156 94.3046 21.7914 94.938 20.9396V22.4467C94.938 23.9538 93.9988 24.9585 92.3388 24.9585C90.8535 24.9585 89.8269 24.2596 89.7614 23.0146H86.354C86.6598 26.007 88.9751 28.0164 92.1422 28.0164C95.8772 28.0164 98.2362 25.592 98.2362 21.7477V11.5256H95.2001L95.0254 12.6395C94.4138 11.744 93.1251 11.1543 91.6399 11.1543C88.5819 11.1543 86.3977 13.4477 86.3977 16.7896ZM89.8051 16.7022C89.8051 15.1295 90.8535 14.0811 92.1859 14.0811C93.7367 14.0811 94.8725 15.1077 94.8725 16.7022C94.8725 18.2967 93.7585 19.3888 92.2077 19.3888C90.8754 19.3888 89.8051 18.2967 89.8051 16.7022Z" fill="#222222"/>
<path d="M99.2166 16.9656C99.2166 20.4167 101.532 22.7101 105.027 22.7101C108.5 22.7101 110.815 20.4167 110.815 16.9656C110.815 13.5145 108.5 11.1992 105.027 11.1992C101.532 11.1992 99.2166 13.5145 99.2166 16.9656ZM102.602 16.9437C102.602 15.3056 103.563 14.2135 105.027 14.2135C106.468 14.2135 107.429 15.3056 107.429 16.9437C107.429 18.6038 106.468 19.6959 105.027 19.6959C103.563 19.6959 102.602 18.6038 102.602 16.9437Z" fill="#222222"/>
<path d="M113.715 9.82239C114.763 9.82239 115.615 8.97054 115.615 7.90027C115.615 6.83 114.763 6 113.715 6C112.645 6 111.793 6.83 111.793 7.90027C111.793 8.97054 112.645 9.82239 113.715 9.82239ZM112.011 22.4472H115.397V11.5261H112.011V22.4472Z" fill="#222222"/>
<path d="M117.368 27.6885H120.688V21.3543C121.321 22.1843 122.763 22.7522 124.27 22.7522C127.524 22.7522 129.49 20.2622 129.403 16.8111C129.315 13.2945 127.284 11.1758 124.248 11.1758C122.697 11.1758 121.234 11.8529 120.622 12.8577L120.447 11.5253H117.368V27.6885ZM120.753 16.9858C120.753 15.3477 121.845 14.2556 123.418 14.2556C125.012 14.2556 126.017 15.3695 126.017 16.9858C126.017 18.6022 125.012 19.7161 123.418 19.7161C121.845 19.7161 120.753 18.624 120.753 16.9858Z" fill="#222222"/>
<path d="M129.761 18.9953C129.848 21.2014 131.596 22.7303 134.348 22.7303C136.991 22.7303 138.826 21.3324 138.826 19.0827C138.826 17.4664 137.865 16.3961 136.073 15.9592L134.13 15.4787C133.431 15.304 132.994 15.1292 132.994 14.5613C132.994 13.9934 133.452 13.6221 134.13 13.6221C134.894 13.6221 135.396 14.1245 135.375 14.8671H138.411C138.323 12.5955 136.598 11.1758 134.195 11.1758C131.771 11.1758 129.958 12.6174 129.958 14.8016C129.958 16.265 130.766 17.4664 132.928 18.0343L134.85 18.5366C135.418 18.6895 135.658 18.9516 135.658 19.3229C135.658 19.869 135.156 20.2185 134.304 20.2185C133.321 20.2185 132.797 19.7598 132.797 18.9953H129.761Z" fill="#222222"/>
<path d="M143.974 22.7304C145.307 22.7304 146.639 22.1188 147.316 21.2233L147.535 22.4465H150.702V11.5254H147.338V17.2044C147.338 18.8425 146.858 19.738 145.307 19.738C144.105 19.738 143.319 19.192 143.319 17.1607V11.5254H139.955V18.3838C139.955 20.9831 141.397 22.7304 143.974 22.7304Z" fill="#222222"/>
<path d="M156.036 22.4467V16.4838C156.036 14.649 157.019 14.1248 157.98 14.1248C159.05 14.1248 159.749 14.7801 159.749 16.1343V22.4467H163.069V16.4838C163.069 14.6272 164.03 14.103 164.991 14.103C166.061 14.103 166.782 14.7582 166.782 16.1343V22.4467H170.059V15.3043C170.059 12.8143 168.748 11.1543 165.93 11.1543C164.358 11.1543 163.069 11.9187 162.501 13.0982C161.846 11.9187 160.71 11.1543 158.897 11.1543C157.696 11.1543 156.582 11.7003 155.927 12.574L155.796 11.5256H152.65V22.4467H156.036Z" fill="#222222"/>
<path d="M0 16C0 7.16344 7.16344 0 16 0H37C45.8366 0 53 7.16344 53 16V32H16C7.16344 32 0 24.8366 0 16Z" fill="#222222"/>
<path d="M37 6H16C10.4772 6 6 10.4772 6 16C6 21.5228 10.4772 26 16 26H37C42.5228 26 47 21.5228 47 16C47 10.4772 42.5228 6 37 6Z" fill="#222222"/>
<path d="M16 21C18.7614 21 21 18.7614 21 16C21 13.2386 18.7614 11 16 11C13.2386 11 11 13.2386 11 16C11 18.7614 13.2386 21 16 21Z" fill="#222222"/>
<path d="M14 15C14.5523 15 15 14.5523 15 14C15 13.4477 14.5523 13 14 13C13.4477 13 13 13.4477 13 14C13 14.5523 13.4477 15 14 15Z" fill="white"/>
<path d="M38 21C40.7614 21 43 18.7614 43 16C43 13.2386 40.7614 11 38 11C35.2386 11 33 13.2386 33 16C33 18.7614 35.2386 21 38 21Z" fill="#222222"/>
<path d="M36 15C36.5523 15 37 14.5523 37 14C37 13.4477 36.5523 13 36 13C35.4477 13 35 13.4477 35 14C35 14.5523 35.4477 15 36 15Z" fill="white"/>
</g>
<defs>
<clipPath id="clip0_111_973">
<rect width="171" height="32" fill="white"/>
</clipPath>
</defs>
</svg>
