<svg width="124" height="32" viewBox="0 0 124 32" fill="none" xmlns="http://www.w3.org/2000/svg">
<path d="M36.8701 10.0697H39.8701V22.1997H36.8701V10.0697ZM41.0601 17.6197C41.0601 14.6197 42.9001 12.8297 45.7401 12.8297C48.5801 12.8297 50.4201 14.6197 50.4201 17.6197C50.4201 20.6197 48.6201 22.4197 45.7401 22.4197C42.8601 22.4197 41.0601 20.6697 41.0601 17.6197ZM47.4101 17.6197C47.4101 15.9697 46.7601 14.9997 45.7401 14.9997C44.7201 14.9997 44.0801 15.9997 44.0801 17.6197C44.0801 19.2397 44.7101 20.2197 45.7401 20.2197C46.7701 20.2197 47.4101 19.2997 47.4101 17.6297V17.6197ZM51.5501 22.7897H54.4301C54.5672 23.0942 54.7989 23.3463 55.0908 23.5085C55.3827 23.6706 55.7192 23.7342 56.0501 23.6897C57.1901 23.6897 57.7901 23.0697 57.7901 22.1697V20.4897H57.7301C57.4911 21.0046 57.1032 21.436 56.6166 21.7284C56.13 22.0207 55.5669 22.1605 55.0001 22.1297C52.8101 22.1297 51.3601 20.4597 51.3601 17.5897C51.3601 14.7197 52.7401 12.9097 55.0401 12.9097C55.6247 12.8868 56.2023 13.0431 56.6956 13.3576C57.1889 13.6722 57.5743 14.13 57.8001 14.6697V12.9997H60.8001V22.0997C60.8001 24.2897 58.8701 25.6497 56.0201 25.6497C53.3701 25.6497 51.7201 24.4597 51.5501 22.7997V22.7897ZM57.8001 17.6097C57.8001 16.1497 57.1301 15.2297 56.0701 15.2297C55.0101 15.2297 54.3601 16.1397 54.3601 17.6097C54.3601 19.0797 55.0001 19.9097 56.0701 19.9097C57.1401 19.9097 57.8001 19.0997 57.8001 17.6197V17.6097ZM61.9301 17.6097C61.9301 14.6097 63.7701 12.8197 66.6101 12.8197C69.4501 12.8197 71.3001 14.6097 71.3001 17.6097C71.3001 20.6097 69.5001 22.4097 66.6101 22.4097C63.7201 22.4097 61.9301 20.6697 61.9301 17.6197V17.6097ZM68.2801 17.6097C68.2801 15.9597 67.6301 14.9897 66.6101 14.9897C65.5901 14.9897 65.0001 15.9997 65.0001 17.6297C65.0001 19.2597 65.6301 20.2297 66.6501 20.2297C67.6701 20.2297 68.2801 19.2997 68.2801 17.6297V17.6097ZM72.4401 10.8197C72.4322 10.5168 72.5145 10.2184 72.6764 9.96231C72.8384 9.70621 73.0727 9.50396 73.3497 9.3812C73.6267 9.25844 73.9339 9.2207 74.2324 9.27275C74.5309 9.32481 74.8072 9.46431 75.0263 9.67358C75.2455 9.88286 75.3975 10.1525 75.4632 10.4483C75.5289 10.7441 75.5053 11.0527 75.3953 11.3351C75.2854 11.6174 75.0941 11.8608 74.8457 12.0343C74.5974 12.2078 74.303 12.3037 74.0001 12.3097C73.7993 12.3235 73.5978 12.2956 73.4083 12.2278C73.2187 12.16 73.0453 12.0538 72.8988 11.9157C72.7523 11.7777 72.6359 11.6108 72.557 11.4256C72.478 11.2405 72.4382 11.041 72.4401 10.8397V10.8197ZM72.4401 13.0197H75.4401V22.1997H72.4401V13.0197ZM86.3301 17.6097C86.3301 20.6097 85.0001 22.3197 82.7201 22.3197C82.1355 22.3572 81.5534 22.2143 81.0526 21.9103C80.5518 21.6062 80.1565 21.1557 79.9201 20.6197H79.8601V25.1397H76.8601V12.9997H79.8601V14.6397H79.9201C80.1455 14.0948 80.5333 13.6326 81.0307 13.3159C81.5281 12.9992 82.111 12.8434 82.7001 12.8697C85.0001 12.9097 86.3701 14.6297 86.3701 17.6297L86.3301 17.6097ZM83.3301 17.6097C83.3301 16.1497 82.6601 15.2197 81.6101 15.2197C80.5601 15.2197 79.8901 16.1597 79.8801 17.6097C79.8701 19.0597 80.5601 19.9897 81.6101 19.9897C82.6601 19.9897 83.3301 19.0797 83.3301 17.6297V17.6097ZM91.4801 12.8097C93.9701 12.8097 95.4801 13.9897 95.5501 15.8797H92.8201C92.8201 15.2297 92.2801 14.8197 91.4501 14.8197C90.6201 14.8197 90.2501 15.1397 90.2501 15.6097C90.2501 16.0797 90.5801 16.2297 91.2501 16.3697L93.1701 16.7597C95.0001 17.1497 95.7801 17.8897 95.7801 19.2797C95.7801 21.1797 94.0501 22.3997 91.5001 22.3997C88.9501 22.3997 87.2801 21.1797 87.1501 19.3097H90.0401C90.1301 19.9897 90.6701 20.3897 91.5501 20.3897C92.4301 20.3897 92.8301 20.0997 92.8301 19.6197C92.8301 19.1397 92.5501 19.0397 91.8301 18.8897L90.1001 18.5197C88.3101 18.1497 87.3701 17.1997 87.3701 15.7997C87.3901 13.9997 89.0001 12.8297 91.4801 12.8297V12.8097ZM105.79 22.1797H102.9V20.4697H102.84C102.681 21.0438 102.331 21.5463 101.847 21.8938C101.363 22.2412 100.775 22.4127 100.18 22.3797C99.7243 22.4056 99.2683 22.3334 98.8428 22.1679C98.4173 22.0024 98.0323 21.7476 97.7138 21.4205C97.3953 21.0935 97.1506 20.7018 96.9965 20.2721C96.8423 19.8424 96.7822 19.3846 96.8201 18.9297V12.9997H99.8201V18.2397C99.8201 19.3297 100.38 19.9097 101.31 19.9097C101.528 19.9101 101.744 19.864 101.943 19.7743C102.141 19.6846 102.319 19.5534 102.463 19.3896C102.606 19.2257 102.714 19.033 102.777 18.8244C102.84 18.6157 102.859 18.3959 102.83 18.1797V12.9997H105.83L105.79 22.1797ZM107.24 12.9997H110.14V14.7697H110.2C110.359 14.2032 110.702 13.7054 111.174 13.3544C111.646 13.0034 112.222 12.8188 112.81 12.8297C113.409 12.7818 114.003 12.9609 114.476 13.3315C114.948 13.7021 115.264 14.2369 115.36 14.8297H115.42C115.601 14.2306 115.977 13.709 116.488 13.3469C116.998 12.9848 117.615 12.8028 118.24 12.8297C118.648 12.816 119.054 12.8883 119.432 13.0419C119.811 13.1954 120.152 13.4269 120.435 13.7211C120.718 14.0154 120.936 14.3659 121.075 14.7498C121.213 15.1337 121.27 15.5426 121.24 15.9497V22.1997H118.24V16.7497C118.24 15.7497 117.79 15.2897 116.95 15.2897C116.763 15.2881 116.577 15.3267 116.406 15.4029C116.235 15.4791 116.082 15.5911 115.958 15.7314C115.834 15.8717 115.741 16.0369 115.686 16.216C115.631 16.3952 115.616 16.584 115.64 16.7697V22.1997H112.79V16.7097C112.79 15.7897 112.34 15.2897 111.52 15.2897C111.331 15.2898 111.143 15.33 110.971 15.4077C110.798 15.4855 110.643 15.599 110.518 15.7407C110.392 15.8824 110.298 16.0492 110.241 16.2301C110.185 16.4109 110.167 16.6016 110.19 16.7897V22.1997H107.19L107.24 12.9997Z" fill="#222222"/>
<path d="M28.4801 10.6209C27.9712 9.45723 27.2977 8.3728 26.4801 7.40087C25.2716 5.92121 23.7634 4.71426 22.0548 3.85947C20.3462 3.00469 18.4759 2.52144 16.5671 2.44153C14.6583 2.36162 12.7542 2.68686 10.9801 3.39586C9.20607 4.10485 7.60226 5.18152 6.27429 6.555C4.94631 7.92847 3.92426 9.56762 3.27541 11.3646C2.62656 13.1615 2.36561 15.0755 2.50975 16.9805C2.6539 18.8856 3.19985 20.7385 4.11169 22.4173C5.02353 24.0962 6.28059 25.5629 7.80011 26.7209C8.7751 27.4788 9.85246 28.0949 11.0001 28.5509C12.6091 29.2103 14.3312 29.5499 16.0701 29.5509C19.6595 29.543 23.0993 28.1122 25.6356 25.5722C28.1718 23.0322 29.5975 19.5903 29.6001 16.0009C29.6027 14.1494 29.2214 12.3175 28.4801 10.6209ZM16.0601 5.19086C17.6217 5.1907 19.1644 5.532 20.5801 6.19086C20.2349 6.34003 19.8719 6.44422 19.5001 6.50087C18.2767 6.67796 17.1434 7.24594 16.2693 8.12004C15.3952 8.99413 14.8272 10.1275 14.6501 11.3509C14.5724 12.037 14.2603 12.6753 13.7666 13.1581C13.2729 13.6409 12.6278 13.9385 11.9401 14.0009C10.7167 14.178 9.58336 14.746 8.70927 15.6201C7.83518 16.4942 7.2672 17.6275 7.09011 18.8509C7.03015 19.5033 6.7518 20.1164 6.30011 20.5909C5.52076 18.9442 5.17065 17.127 5.28237 15.3086C5.39409 13.4902 5.964 11.7296 6.93907 10.1906C7.91413 8.65166 9.26268 7.38438 10.8592 6.50671C12.4557 5.62904 14.2483 5.16951 16.0701 5.17086L16.0601 5.19086ZM7.7901 23.0009C7.9101 22.8909 8.03011 22.7909 8.1501 22.6709C9.03975 21.8084 9.61082 20.6698 9.7701 19.4409C9.83468 18.7501 10.1431 18.1049 10.6401 17.6209C11.1184 17.1231 11.7621 16.8172 12.4501 16.7609C13.6735 16.5838 14.8068 16.0158 15.6809 15.1417C16.555 14.2676 17.123 13.1343 17.3001 11.9109C17.3434 11.1884 17.6534 10.5077 18.1701 10.0009C18.6602 9.51272 19.31 9.21797 20.0001 9.17086C21.124 9.01623 22.1722 8.51658 23.0001 7.74087C23.9428 8.52294 24.7414 9.46376 25.3601 10.5209C25.3221 10.5722 25.2785 10.6192 25.2301 10.6609C24.7528 11.1631 24.1099 11.4757 23.4201 11.5409C22.1954 11.7149 21.0604 12.2819 20.1857 13.1565C19.3111 14.0312 18.7441 15.1662 18.5701 16.3909C18.4996 17.0793 18.1933 17.7222 17.7031 18.2106C17.2128 18.6991 16.5688 19.003 15.8801 19.0709C14.6531 19.2466 13.5156 19.8135 12.6364 20.6872C11.7573 21.561 11.1834 22.695 11.0001 23.9209C10.9463 24.4096 10.7784 24.8789 10.5101 25.2909C9.4841 24.6817 8.5652 23.9081 7.7901 23.0009ZM16.0601 26.8609C15.0454 26.862 14.0355 26.7206 13.0601 26.4409C13.3938 25.8189 13.6107 25.141 13.7001 24.4409C13.7702 23.754 14.0751 23.1123 14.5633 22.6241C15.0515 22.1359 15.6932 21.831 16.3801 21.7609C17.6053 21.5858 18.7409 21.0187 19.617 20.1444C20.493 19.2702 21.0625 18.1357 21.2401 16.9109C21.3102 16.224 21.6151 15.5823 22.1033 15.0941C22.5915 14.6059 23.2332 14.301 23.9201 14.2309C24.8421 14.111 25.7209 13.7677 26.4801 13.2309C26.9017 14.8288 26.9516 16.502 26.6261 18.1222C26.3006 19.7424 25.6082 21.2666 24.6022 22.5777C23.5962 23.8887 22.3033 24.952 20.8225 25.6858C19.3418 26.4196 17.7127 26.8045 16.0601 26.8109V26.8609Z" fill="#222222"/>
</svg>
