<svg width="130" height="40" viewBox="0 0 130 40" fill="none" xmlns="http://www.w3.org/2000/svg">
<path d="M19.9607 2.05078C17.6084 2.05078 15.2789 2.51509 13.1056 3.41704C10.9322 4.31909 8.95753 5.64114 7.29404 7.30781C5.63065 8.97458 4.31121 10.9531 3.41093 13.1308C2.51076 15.3084 2.04736 17.6425 2.04736 19.9995C2.04736 22.3565 2.51076 24.6906 3.41093 26.8682C4.31121 29.0459 5.63065 31.0244 7.29404 32.6912C8.95753 34.3579 10.9322 35.6799 13.1056 36.582C15.2789 37.4839 17.6084 37.9482 19.9607 37.9482V28.9739C18.7845 28.9739 17.6198 28.7418 16.5332 28.2907C15.4465 27.8397 14.4591 27.1787 13.6274 26.3453C12.7957 25.512 12.136 24.5227 11.6859 23.4339C11.2357 22.345 11.0041 21.1781 11.0041 19.9995C11.0041 18.8209 11.2357 17.654 11.6859 16.5651C12.136 15.4763 12.7957 14.487 13.6274 13.6537C14.4591 12.8203 15.4465 12.1593 16.5332 11.7083C17.6198 11.2572 18.7845 11.0251 19.9607 11.0251V2.05078Z" fill="#222222"/>
<path d="M19.9608 25.9833C23.2586 25.9833 25.9319 23.3048 25.9319 20.0004C25.9319 16.6961 23.2586 14.0176 19.9608 14.0176C16.663 14.0176 13.9897 16.6961 13.9897 20.0004C13.9897 23.3048 16.663 25.9833 19.9608 25.9833Z" fill="#222222"/>
<path d="M2.04736 20C2.04736 22.357 2.51076 24.6911 3.41093 26.8687C4.31121 29.0464 5.63065 31.0249 7.29404 32.6917C8.95753 34.3584 10.9322 35.6804 13.1056 36.5825C15.2789 37.4844 17.6084 37.9487 19.9607 37.9487C22.3131 37.9487 24.6426 37.4844 26.8159 36.5825C28.9893 35.6804 30.964 34.3584 32.6275 32.6917C34.2908 31.0249 35.6103 29.0464 36.5106 26.8687C37.4107 24.6911 37.8741 22.357 37.8741 20H28.9174C28.9174 21.1786 28.6858 22.3455 28.2356 23.4344C27.7855 24.5232 27.1258 25.5125 26.2941 26.3458C25.4624 27.1792 24.475 27.8402 23.3883 28.2912C22.3017 28.7423 21.137 28.9744 19.9607 28.9744C18.7845 28.9744 17.6198 28.7423 16.5332 28.2912C15.4465 27.8402 14.4591 27.1792 13.6274 26.3458C12.7957 25.5125 12.136 24.5232 11.6859 23.4344C11.2357 22.3455 11.0041 21.1786 11.0041 20H2.04736Z" fill="#222222"/>
<path d="M25.9318 20.0006C25.9318 18.4138 25.3027 16.892 24.1829 15.77C23.0631 14.6479 21.5443 14.0176 19.9607 14.0176C18.3771 14.0176 16.8583 14.6479 15.7385 15.77C14.6186 16.892 13.9895 18.4138 13.9895 20.0006H19.9607H25.9318Z" fill="#222222"/>
<path d="M47.2295 13.2559H45.0046V25.6405H47.2295V13.2559Z" fill="#222222"/>
<path d="M48.6824 21.2526C48.6824 24.1187 50.66 25.888 53.2733 25.888C55.8866 25.888 57.8643 24.1187 57.8643 21.2526C57.8643 18.3864 55.8866 16.6172 53.2733 16.6172C50.66 16.6172 48.6824 18.3864 48.6824 21.2526ZM50.9072 21.2526C50.9072 19.5541 51.896 18.5633 53.2733 18.5633C54.6506 18.5633 55.6394 19.5541 55.6394 21.2526C55.6394 22.951 54.6506 23.9418 53.2733 23.9418C51.896 23.9418 50.9072 22.951 50.9072 21.2526Z" fill="#222222"/>
<path d="M65.8148 16.8649V18.0502H65.6382C65.1085 17.2895 64.2609 16.6172 62.7424 16.6172C60.6588 16.6172 58.7871 18.3864 58.7871 21.111C58.7871 23.8356 60.6588 25.6049 62.7424 25.6049C64.2609 25.6049 65.1085 24.9148 65.6029 24.2249H65.7795V25.0741C65.7795 26.7726 64.7907 27.551 63.3427 27.551C61.8948 27.551 61.1532 26.7726 60.853 25.7641L58.8577 26.631C59.3168 27.9579 60.6588 29.4264 63.3781 29.4264C66.1679 29.4264 68.0043 27.9579 68.0043 25.1271V16.8649H65.8148ZM63.4134 23.6941C62.0361 23.6941 61.012 22.7033 61.012 21.111C61.012 19.5187 62.0361 18.528 63.4134 18.528C64.7907 18.528 65.8148 19.5187 65.8148 21.111C65.8148 22.7033 64.7907 23.6941 63.4134 23.6941Z" fill="#222222"/>
<path d="M69.4436 21.2526C69.4436 24.1187 71.4212 25.888 74.0345 25.888C76.6479 25.888 78.6254 24.1187 78.6254 21.2526C78.6254 18.3864 76.6479 16.6172 74.0345 16.6172C71.4212 16.6172 69.4436 18.3864 69.4436 21.2526ZM71.6684 21.2526C71.6684 19.5541 72.6573 18.5633 74.0345 18.5633C75.4118 18.5633 76.4007 19.5541 76.4007 21.2526C76.4007 22.951 75.4118 23.9418 74.0345 23.9418C72.6573 23.9418 71.6684 22.951 71.6684 21.2526Z" fill="#222222"/>
<path d="M80.3718 14.3184C80.3718 15.2208 81.0607 15.84 81.9441 15.84C82.8265 15.84 83.5154 15.2208 83.5154 14.3184C83.5154 13.4162 82.8265 12.7969 81.9441 12.7969C81.0607 12.7969 80.3718 13.4162 80.3718 14.3184ZM83.0558 16.8661H80.8314V25.6415H83.0558V16.8661Z" fill="#222222"/>
<path d="M85.0383 29.1787H87.2637V24.508H87.4397C87.9342 25.2156 88.7817 25.888 90.3008 25.888C92.3838 25.888 94.2561 24.1187 94.2561 21.2526C94.2561 18.3864 92.3838 16.6172 90.3008 16.6172C88.7817 16.6172 87.9342 17.2895 87.4049 18.0503H87.2279V16.8649H85.0383V29.1787ZM89.6293 23.9772C88.2525 23.9772 87.2279 22.9864 87.2279 21.2526C87.2279 19.5187 88.2525 18.528 89.6293 18.528C91.0071 18.528 92.0307 19.5187 92.0307 21.2526C92.0307 22.9864 91.0071 23.9772 89.6293 23.9772Z" fill="#222222"/>
<path d="M95.5542 19.3242C95.5542 21.058 97.0016 21.6949 98.838 22.0488L99.2976 22.1372C100.392 22.3495 100.886 22.6149 100.886 23.1811C100.886 23.7472 100.392 24.1895 99.3682 24.1895C98.3436 24.1895 97.5144 23.7649 97.2841 22.491L95.2358 23.0218C95.5368 24.8618 97.0722 25.888 99.3682 25.888C101.593 25.888 103.041 24.8442 103.041 23.0042C103.041 21.1641 101.558 20.6688 99.5801 20.2795L99.1205 20.191C98.2023 20.0141 97.7079 19.7664 97.7079 19.1826C97.7079 18.6519 98.1675 18.3156 99.0151 18.3156C99.8626 18.3156 100.462 18.6695 100.674 19.6249L102.688 19.0057C102.264 17.5903 100.975 16.6172 99.0151 16.6172C96.931 16.6172 95.5542 17.5903 95.5542 19.3242Z" fill="#222222"/>
<path d="M113.034 25.6406V16.8652H110.81V21.3945C110.81 23.0222 110.016 23.9775 108.655 23.9775C107.455 23.9775 106.784 23.323 106.784 21.996V16.8652H104.559V22.1022C104.559 24.2784 105.919 25.7822 107.967 25.7822C109.574 25.7822 110.316 25.0745 110.669 24.3314H110.845V25.6406H113.034Z" fill="#222222"/>
<path d="M115.008 16.8661V25.6415H117.233V20.4046C117.233 19.2015 117.798 18.5292 118.822 18.5292C119.705 18.5292 120.235 19.0246 120.235 19.98V25.6415H122.46V20.4046C122.46 19.2015 123.025 18.5292 124.049 18.5292C124.932 18.5292 125.461 19.0246 125.461 19.98V25.6415H127.687V19.8738C127.687 17.7508 126.379 16.7246 124.755 16.7246C123.325 16.7246 122.672 17.3615 122.248 18.1046H122.071C121.665 17.2731 120.941 16.7246 119.67 16.7246C118.398 16.7246 117.709 17.2908 117.375 17.9631H117.198V16.8661H115.008Z" fill="#222222"/>
</svg>
