<svg width="23" height="24" viewBox="0 0 23 24" fill="none" xmlns="http://www.w3.org/2000/svg">
<g clip-path="url(#clip0_111_296)">
<path d="M12.1517 4.35225C8.41064 4.1414 4.80127 5.76571 2.47812 8.70562C0.154964 11.6455 -0.590856 15.5326 0.479219 19.1236C0.579237 19.4465 0.877621 19.6667 1.2156 19.6672H21.7849C22.1229 19.6666 22.4212 19.4462 22.5209 19.1232C23.5272 15.7521 22.935 12.1059 20.9137 9.22643C18.8923 6.347 15.6642 4.55121 12.1517 4.35225ZM21.7849 18.9005L1.21369 18.9032C0.24449 15.6555 0.866154 12.1409 2.89058 9.42269C4.915 6.70451 8.10432 5.10218 11.4935 5.10052C11.698 5.10052 11.9033 5.10614 12.1096 5.11739C15.3873 5.30247 18.4 6.97805 20.2862 9.6651C22.1724 12.3521 22.7246 15.7549 21.7849 18.9005Z" fill="#3A386F"/>
<path d="M11.5001 5.86719C8.5078 5.86923 5.67455 7.21464 3.78189 9.53228C1.88922 11.8499 1.13714 14.8949 1.73311 17.8272C1.77964 18.03 1.97952 18.1587 2.18343 18.1171C2.38733 18.0754 2.52077 17.8787 2.48406 17.6739C2.38734 17.1937 2.32901 16.7066 2.30964 16.2172H3.45006C3.66177 16.2172 3.83339 16.0456 3.83339 15.8339C3.83339 15.6221 3.66177 15.4505 3.45006 15.4505H2.30964C2.36461 14.0963 2.72025 12.7713 3.35078 11.5716L4.33671 12.1408C4.45538 12.2104 4.60223 12.211 4.72151 12.1425C4.84079 12.074 4.91421 11.9468 4.91391 11.8093C4.91361 11.6717 4.83962 11.5449 4.72004 11.4769L3.73564 10.9084C4.46322 9.76606 5.43226 8.79701 6.57461 8.06944L7.14309 9.05384C7.21108 9.17342 7.33793 9.2474 7.47549 9.24771C7.61305 9.24801 7.74022 9.17458 7.80873 9.0553C7.87725 8.93602 7.8766 8.78917 7.80703 8.6705L7.23778 7.68457C9.90662 6.28362 13.0935 6.28362 15.7623 7.68457L15.1931 8.6705C15.1235 8.78917 15.1229 8.93602 15.1914 9.0553C15.2599 9.17458 15.3871 9.24801 15.5246 9.24771C15.6622 9.2474 15.789 9.17342 15.857 9.05384L16.4255 8.06944C17.5679 8.79701 18.5369 9.76606 19.2645 10.9084L18.2801 11.4769C18.1605 11.5449 18.0865 11.6717 18.0862 11.8093C18.0859 11.9468 18.1593 12.074 18.2786 12.1425C18.3979 12.211 18.5447 12.2104 18.6634 12.1408L19.6493 11.5716C20.2799 12.7713 20.6355 14.0963 20.6905 15.4505H19.5501C19.3384 15.4505 19.1667 15.6221 19.1667 15.8339C19.1667 16.0456 19.3384 16.2172 19.5501 16.2172H20.6905C20.6711 16.7066 20.6128 17.1937 20.5161 17.6739C20.4741 17.8811 20.6079 18.0831 20.8151 18.1254C20.8403 18.1307 20.866 18.1334 20.8917 18.1335C21.0738 18.1333 21.2306 18.0052 21.267 17.8268C21.8628 14.8946 21.1107 11.8497 19.2181 9.53215C17.3254 7.21461 14.4922 5.86925 11.5001 5.86719Z" fill="#3A386F"/>
<path d="M12.8312 13.9616L12.2995 8.13495C12.2632 7.72038 11.916 7.40234 11.4999 7.40234C11.0837 7.40234 10.7366 7.72038 10.7002 8.13495L10.1686 13.9616C9.35222 14.5411 9.00445 15.582 9.30856 16.5358C9.61266 17.4896 10.4988 18.1371 11.4999 18.1371C12.501 18.1371 13.3871 17.4896 13.6912 16.5358C13.9953 15.582 13.6475 14.5411 12.8312 13.9616ZM11.4638 8.2005C11.4693 8.18534 11.4837 8.17524 11.4999 8.17524C11.516 8.17524 11.5304 8.18534 11.5359 8.2005L12.0281 13.5959C11.6811 13.511 11.3187 13.511 10.9716 13.5959L11.4638 8.2005ZM11.4999 17.3671C10.653 17.3671 9.96654 16.6806 9.96654 15.8338C9.96654 14.987 10.653 14.3005 11.4999 14.3005C12.3467 14.3005 13.0332 14.987 13.0332 15.8338C13.0332 16.6806 12.3467 17.3671 11.4999 17.3671Z" fill="#3A386F"/>
</g>
<defs>
<clipPath id="clip0_111_296">
<rect width="23" height="23" fill="white" transform="translate(0 0.5)"/>
</clipPath>
</defs>
</svg>
