<svg width="23" height="24" viewBox="0 0 23 24" fill="none" xmlns="http://www.w3.org/2000/svg">
<g clip-path="url(#clip0_111_289)">
<path d="M22.5099 6.67543L18.4828 2.64837C17.8968 2.06227 16.9872 1.9939 16.3201 2.4858L14.1447 4.08979C14.0657 4.14801 14.016 4.23781 14.0087 4.33565C14.0013 4.43349 14.037 4.52967 14.1064 4.59908L14.6306 5.12332L12.3275 7.42644H10.6724L8.36918 5.12318L8.89351 4.59881C8.96292 4.5294 8.99854 4.43322 8.99122 4.33538C8.98385 4.23754 8.93417 4.14774 8.8552 4.08952L6.67988 2.48589C6.01301 1.99386 5.10343 2.06223 4.51715 2.64855L3.87947 3.28627C3.74794 3.4178 3.74794 3.63109 3.87947 3.76262C4.01101 3.89416 4.2243 3.89416 4.35583 3.76262L4.99355 3.12491C5.34237 2.77609 5.88332 2.73534 6.28007 3.02806L7.00386 3.56164L1.40323 9.16223L0.869639 8.43867C0.577151 8.04142 0.61785 7.50011 0.966402 7.15156L3.40325 4.71475C3.53479 4.58322 3.53479 4.36997 3.40325 4.2384C3.27177 4.10686 3.05848 4.10686 2.9269 4.2384L0.490047 6.6752C-0.0957843 7.26103 -0.164291 8.17066 0.327338 8.83825L1.93156 11.0137C1.98978 11.0927 2.07957 11.1423 2.17742 11.1497C2.18586 11.1503 2.19426 11.1506 2.20266 11.1506C2.29161 11.1506 2.37741 11.1154 2.44084 11.052L2.96513 10.5276L3.35626 10.9188C2.52988 11.6302 2.04638 12.6687 2.04638 13.7685C2.04638 15.5745 3.33533 17.1167 5.08402 17.4583C5.27417 18.466 5.9919 19.2894 6.93863 19.629V20.8389C6.93863 21.3922 7.38857 21.8423 7.94166 21.8423C8.37682 21.8423 8.74806 21.5638 8.88678 21.1757H9.36902C9.50769 21.5638 9.8787 21.8423 10.3137 21.8423C10.7488 21.8423 11.1201 21.5638 11.2588 21.1757H11.7412C11.8799 21.5637 12.251 21.8422 12.6861 21.8422C13.1211 21.8422 13.4922 21.5637 13.6309 21.1757H14.1133C14.252 21.5637 14.6232 21.8422 15.0582 21.8422C15.6114 21.8422 16.0614 21.3921 16.0614 20.839V18.1909C16.5897 18.1179 17.0645 17.8762 17.4298 17.5217C18.1032 17.4794 18.7502 17.2575 19.3089 16.876C19.4625 16.771 19.502 16.5615 19.3971 16.4078C19.2922 16.2542 19.0826 16.2147 18.929 16.3196C18.6331 16.5218 18.3068 16.6688 17.9642 16.7573C18.0723 16.5146 18.1421 16.2513 18.1658 15.9749C19.0356 15.5926 19.6052 14.7338 19.6052 13.7686C19.6052 13.0208 19.2617 12.3286 18.6868 11.8757L19.1658 11.3967C19.868 11.9812 20.2799 12.8488 20.2799 13.7685C20.2799 14.3705 20.1057 14.9542 19.776 15.4564C19.674 15.6119 19.7173 15.8207 19.8728 15.9228C19.9298 15.9603 19.9939 15.9781 20.0573 15.9781C20.167 15.9781 20.2745 15.9246 20.3392 15.8261C20.7411 15.2138 20.9536 14.5022 20.9536 13.7685C20.9536 12.6685 20.47 11.6301 19.6436 10.919L20.0349 10.5276L20.5592 11.0519C20.6226 11.1153 20.7084 11.1506 20.7974 11.1506C20.8058 11.1506 20.8142 11.1503 20.8226 11.1496C20.9205 11.1423 21.0103 11.0926 21.0685 11.0137L22.6725 8.8383C23.1644 8.17107 23.096 7.26148 22.5099 6.67543ZM17.0792 9.78647C17.0792 9.70193 17.1122 9.62242 17.172 9.56262L18.121 8.6136L18.5686 9.06125L17.6196 10.0103C17.5598 10.0701 17.4804 10.103 17.3958 10.103C17.3113 10.103 17.2318 10.0701 17.172 10.0103C17.1122 9.95053 17.0792 9.87102 17.0792 9.78647ZM16.2454 6.73805L16.5447 7.03732L15.5956 7.98635C15.5358 8.04614 15.4564 8.07907 15.3718 8.07907C15.2872 8.07907 15.2078 8.04614 15.1479 7.98635C15.0245 7.86295 15.0245 7.6621 15.1479 7.5387L16.097 6.58967L16.2454 6.73805ZM15.107 5.59967L15.6207 6.11331L14.6716 7.06234C14.2856 7.4484 14.2856 8.0766 14.6716 8.46266C14.8586 8.64967 15.1073 8.75268 15.3718 8.75268C15.6363 8.75268 15.8849 8.64967 16.072 8.46266L17.021 7.51363L17.6446 8.13729L16.6956 9.08631C16.5086 9.27332 16.4056 9.52201 16.4056 9.78647C16.4056 10.0509 16.5086 10.2996 16.6956 10.4866C16.8826 10.6736 17.1313 10.7766 17.3958 10.7766C17.6603 10.7766 17.9089 10.6736 18.0959 10.4866L19.045 9.5376L19.5586 10.0512L17.395 12.2149L12.9434 7.76331L15.107 5.59967ZM13.6892 18.2148H14.055V20.502H13.6892V18.2148ZM11.3771 17.5411L13.2758 15.6772C13.2748 15.7059 13.2736 15.7347 13.2736 15.7636C13.2736 16.4629 13.5684 17.0942 14.0397 17.5411H11.3771ZM8.94508 19.6015C9.07154 19.5522 9.19364 19.4944 9.31071 19.4284V20.502H8.94508V19.6015ZM11.3172 18.2148H11.6829V20.502H11.3172V18.2148ZM10.7645 17.1986C10.7731 17.1084 10.7779 17.0172 10.7779 16.9248C10.7779 15.3411 9.48941 14.0526 7.90572 14.0526C7.84368 14.0526 7.78227 14.0553 7.72118 14.0592L9.59906 12.2229C9.66932 13.2106 10.4948 13.9929 11.5 13.9929C12.5512 13.9929 13.4064 13.1377 13.4064 12.0865C13.4064 12.0415 13.4042 11.997 13.4011 11.9528L15.3331 13.3444C14.8143 13.428 14.3494 13.6747 13.9933 14.0305L13.9937 14.0284L10.7645 17.1986ZM4.794 12.3566L5.30957 12.8721L5.94109 14.8325C5.74357 15.0182 5.57219 15.2311 5.43324 15.4656C4.65268 15.2923 4.06819 14.5851 4.06819 13.7686C4.06824 13.2029 4.34119 12.6811 4.794 12.3566ZM11.5 10.8538C12.1797 10.8538 12.7327 11.4068 12.7327 12.0865C12.7327 12.7662 12.1797 13.3192 11.5 13.3192C10.8203 13.3192 10.2673 12.7662 10.2673 12.0865C10.2673 11.4068 10.8203 10.8538 11.5 10.8538ZM16.7636 13.5445C16.7636 13.5445 12.6916 10.5983 12.6441 10.5625C12.3252 10.3225 11.9289 10.1801 11.5 10.1801C11.004 10.1801 10.5517 10.3707 10.2122 10.6823L6.48546 14.3253L5.98884 12.7837L10.6725 8.10009H12.3275L17.0111 12.7837L16.7659 13.5455C16.7651 13.5452 16.7643 13.5449 16.7636 13.5445ZM4.87904 8.61364L5.82807 9.56267C5.88786 9.62246 5.92079 9.70193 5.92079 9.78647C5.92079 9.87102 5.88786 9.95053 5.82807 10.0103C5.76827 10.0701 5.68881 10.103 5.60422 10.103C5.51967 10.103 5.44021 10.0701 5.38042 10.0103L4.43139 9.06125L4.87904 8.61364ZM2.24134 10.2988L1.80757 9.71055L7.55223 3.9659L8.1403 4.3994L2.24134 10.2988ZM3.95508 9.53765L4.90406 10.4866C5.09107 10.6736 5.33972 10.7766 5.60422 10.7766C5.86872 10.7766 6.11736 10.6736 6.30438 10.4866C6.49139 10.2996 6.59439 10.0509 6.59439 9.78647C6.59439 9.52201 6.49139 9.27332 6.30438 9.08631L5.35535 8.13729L5.36317 8.12947L5.979 7.51363L6.92803 8.46266C7.11504 8.64967 7.36369 8.75268 7.62819 8.75268C7.89269 8.75268 8.14134 8.64967 8.32835 8.46266C8.71441 8.0766 8.71441 7.4484 8.32835 7.06234L7.37932 6.11331L7.89296 5.59967L10.0566 7.76331L5.60498 12.2149L3.44144 10.0513L3.95508 9.53765ZM6.90301 6.58967L7.85204 7.5387C7.97544 7.6621 7.97544 7.86295 7.85204 7.98635C7.79225 8.04614 7.71273 8.07907 7.62819 8.07907C7.54365 8.07907 7.46413 8.04614 7.40434 7.98635L6.45536 7.03732L6.90301 6.58967ZM2.72003 13.7685C2.72003 12.849 3.13188 11.9814 3.83397 11.3965L4.31311 11.8756C3.73806 12.3286 3.39454 13.0207 3.39454 13.7685C3.39454 14.3731 3.62018 14.9519 4.02992 15.3981C4.33737 15.733 4.72779 15.9711 5.15724 16.0913C5.09251 16.3042 5.05194 16.5275 5.03869 16.7581C3.69305 16.413 2.72003 15.1903 2.72003 13.7685ZM5.70722 16.9248C5.70722 15.7126 6.69349 14.7263 7.90572 14.7263C9.11794 14.7263 10.1042 15.7125 10.1042 16.9248C10.1042 18.1371 9.11794 19.1233 7.90572 19.1233C6.69349 19.1233 5.70722 18.1371 5.70722 16.9248ZM7.94166 21.1686C7.76008 21.1686 7.61229 21.0207 7.61229 20.8389V19.7821C7.70878 19.7919 7.80662 19.7969 7.90567 19.7969C8.02966 19.7969 8.15153 19.7882 8.27143 19.7729V20.8389C8.27143 21.0207 8.1235 21.1686 7.94166 21.1686ZM10.3137 21.1686C10.1321 21.1686 9.98436 21.0207 9.98436 20.8389V18.9084L10.6435 18.2613V20.8388C10.6435 21.0207 10.4956 21.1686 10.3137 21.1686ZM12.6861 21.1685C12.5044 21.1685 12.3565 21.0207 12.3565 20.839V18.2148H13.0156V20.839C13.0156 21.0207 12.8678 21.1685 12.6861 21.1685ZM15.0582 21.1685C14.8765 21.1685 14.7287 21.0207 14.7287 20.839V18.2148H15.3877V20.839C15.3877 21.0207 15.2399 21.1685 15.0582 21.1685ZM15.7246 17.5409C14.7446 17.5409 13.9473 16.7437 13.9473 15.7636C13.9473 14.7837 14.7445 13.9863 15.7246 13.9863C16.7045 13.9863 17.5019 14.7836 17.5019 15.7636C17.5019 16.7437 16.7045 17.5409 15.7246 17.5409ZM18.9315 13.7686C18.9315 14.3773 18.6172 14.9273 18.1186 15.2399C18.0059 14.7245 17.7307 14.2694 17.3494 13.931L17.6903 12.8722L18.2059 12.3567C18.6586 12.681 18.9315 13.2029 18.9315 13.7686ZM20.7586 10.2986L14.8596 4.39962L15.4478 3.96594L21.1923 9.71046L20.7586 10.2986ZM22.1303 8.4384L21.5966 9.1621L15.9961 3.5616L16.7198 3.02797C17.1168 2.7353 17.6578 2.776 18.0065 3.12468L22.0335 7.15174C22.3822 7.50042 22.4229 8.04156 22.1303 8.4384Z" fill="#3A386F"/>
<path d="M8.92241 16.9248C8.92241 16.3643 8.46637 15.9082 7.90579 15.9082C7.34521 15.9082 6.88916 16.3643 6.88916 16.9248C6.88916 17.4854 7.34521 17.9415 7.90579 17.9415C8.46637 17.9415 8.92241 17.4854 8.92241 16.9248ZM7.56281 16.9248C7.56281 16.7357 7.71667 16.5819 7.90579 16.5819C8.09491 16.5819 8.24877 16.7357 8.24877 16.9248C8.24877 17.114 8.09491 17.2678 7.90579 17.2678C7.71667 17.2678 7.56281 17.114 7.56281 16.9248Z" fill="#3A386F"/>
<path d="M15.7246 14.7461C15.1641 14.7461 14.708 15.2021 14.708 15.7627C14.708 16.3233 15.1641 16.7793 15.7246 16.7793C16.2852 16.7793 16.7413 16.3233 16.7413 15.7627C16.7413 15.2021 16.2852 14.7461 15.7246 14.7461ZM15.7246 16.1057C15.5355 16.1057 15.3817 15.9518 15.3817 15.7627C15.3817 15.5736 15.5355 15.4197 15.7246 15.4197C15.9138 15.4197 16.0676 15.5736 16.0676 15.7627C16.0676 15.9518 15.9138 16.1057 15.7246 16.1057Z" fill="#3A386F"/>
</g>
<defs>
<clipPath id="clip0_111_289">
<rect width="23" height="23" fill="white" transform="translate(0 0.5)"/>
</clipPath>
</defs>
</svg>
