<svg width="23" height="24" viewBox="0 0 23 24" fill="none" xmlns="http://www.w3.org/2000/svg">
<path d="M16.0971 23.3506H6.90332V17.7949H16.0971V23.3506ZM7.52494 22.7019H15.4755V18.4436H7.52494V22.7019Z" fill="#3A386F"/>
<path d="M16.0099 23.3521H15.7737L15.7986 22.7035C18.6612 22.8235 19.0745 20.3521 19.0901 20.2483V20.2127C19.6744 17.9424 18.1949 17.4819 18.1328 17.4656C17.163 17.1413 16.013 18.3381 16.0037 18.351L15.5562 17.897C15.6152 17.8354 16.9735 16.3986 18.3068 16.8429C18.818 17.0133 19.2509 17.3749 19.5221 17.8581C19.892 18.5067 19.951 19.3597 19.6962 20.3683C19.6526 20.6408 19.0776 23.3521 16.0099 23.3521Z" fill="#3A386F"/>
<path d="M6.98992 23.3508C3.92222 23.3508 3.34722 20.6395 3.29749 20.3638C3.04262 19.3551 3.10168 18.5119 3.47154 17.8535C3.74837 17.3622 4.19217 16.9975 4.71479 16.8319C6.03262 16.3908 7.38776 17.8308 7.44681 17.8924L6.99925 18.3465C6.99925 18.3465 5.85235 17.1335 4.88573 17.4546C4.80803 17.4773 3.33168 17.9249 3.91289 20.2081V20.2438C3.92843 20.3476 4.3387 22.8189 7.20438 22.6989L7.22925 23.3476L6.98992 23.3508Z" fill="#3A386F"/>
<path d="M17.8251 17.1891C17.7847 17.0269 16.846 13.1805 17.0978 9.83991V9.80099C17.1505 9.47852 17.1417 9.14834 17.0718 8.82943C17.0019 8.51052 16.8724 8.20915 16.6906 7.94262C16.2803 7.43343 15.5779 7.16748 14.6082 7.16748H8.39195C7.41601 7.16748 6.71357 7.43343 6.3002 7.95559C6.12056 8.22307 5.99323 8.52488 5.9255 8.84377C5.85776 9.16265 5.85096 9.49234 5.90547 9.81397V9.85289C6.15722 13.1934 5.21857 17.0399 5.17817 17.2021L4.5752 17.0399C4.5752 17.001 5.52317 13.148 5.28695 9.90478C5.21906 9.49218 5.23169 9.06953 5.32409 8.66215C5.41648 8.25477 5.58674 7.87104 5.82465 7.53397C6.36236 6.85289 7.22952 6.50586 8.40128 6.50586H14.6082C15.7799 6.50586 16.6471 6.85289 17.1848 7.53397C17.4233 7.87315 17.5933 8.25928 17.6847 8.66902C17.776 9.07875 17.7868 9.50356 17.7163 9.91775C17.4801 13.161 18.4156 17.001 18.428 17.0529L17.8251 17.1891Z" fill="#3A386F"/>
<path d="M14.9404 18.4448H8.05908V6.84375H8.6807V17.7962H14.3188V6.84375H14.9404V18.4448Z" fill="#3A386F"/>
<path d="M8.37012 11.3262H14.6298V11.9748H8.37012V11.3262Z" fill="#3A386F"/>
<path d="M13.2624 7.16699H9.73779V5.13672H13.2624V7.16699ZM10.3594 6.51834H12.6408V5.78537H10.3594V6.51834Z" fill="#3A386F"/>
<path d="M13.8806 5.78575H9.11896C8.96136 5.7858 8.80551 5.75121 8.66158 5.68422C8.51764 5.61723 8.38884 5.51936 8.28358 5.39697C8.17831 5.27458 8.09893 5.13042 8.05061 4.97388C8.00229 4.81735 7.98612 4.65195 8.00315 4.48845L8.27045 1.69602C8.299 1.40761 8.42938 1.1406 8.6362 0.94696C8.84303 0.753324 9.1115 0.646919 9.38936 0.648454H13.6102C13.8895 0.647151 14.1592 0.754913 14.3662 0.950559C14.5733 1.1462 14.7027 1.41558 14.7291 1.70575L14.9964 4.49494C15.0134 4.65843 14.9972 4.82383 14.9489 4.98037C14.9006 5.13691 14.8212 5.28106 14.716 5.40345C14.6107 5.52584 14.4819 5.62372 14.338 5.69071C14.194 5.75769 14.0382 5.79229 13.8806 5.79224V5.78575ZM9.38936 1.2971C9.26483 1.29646 9.14454 1.34429 9.05201 1.43126C8.95947 1.51822 8.90133 1.63807 8.88896 1.76737L8.62166 4.55981C8.61374 4.63271 8.62073 4.70654 8.64216 4.77642C8.66359 4.8463 8.69897 4.91065 8.74599 4.96521C8.79311 5.01958 8.85067 5.06298 8.91493 5.09259C8.97919 5.12221 9.04871 5.13737 9.11896 5.1371H13.8806C13.9508 5.13737 14.0203 5.12221 14.0846 5.09259C14.1489 5.06298 14.2064 5.01958 14.2536 4.96521C14.3006 4.91065 14.336 4.8463 14.3574 4.77642C14.3788 4.70654 14.3858 4.63271 14.3779 4.55981L14.1106 1.77062C14.0989 1.64073 14.0411 1.52009 13.9485 1.43246C13.8559 1.34482 13.7352 1.29654 13.6102 1.2971H9.38936Z" fill="#3A386F"/>
</svg>
